<svg width="64" height="64" viewBox="0 0 64 64" fill="none" xmlns="http://www.w3.org/2000/svg">
  <rect width="64" height="64" rx="0" fill="#F8F7FF"/>
  <rect x="10" y="10" width="44" height="44" rx="14" fill="url(#g)"/>
  <path d="M23 24.5C23 21.4624 25.4624 19 28.5 19H41V43H28.5C25.4624 43 23 40.5376 23 37.5V24.5Z" fill="white" fill-opacity="0.95"/>
  <path d="M23 24.5C23 21.4624 25.4624 19 28.5 19H41V21.5H28.5C26.8431 21.5 25.5 22.8431 25.5 24.5V37.5C25.5 39.1569 26.8431 40.5 28.5 40.5H41V43H28.5C25.4624 43 23 40.5376 23 37.5V24.5Z" fill="white"/>
  <path d="M29.5 26H37.5" stroke="#7C3AED" stroke-width="2.4" stroke-linecap="round"/>
  <path d="M29.5 31H37.5" stroke="#7C3AED" stroke-width="2.4" stroke-linecap="round"/>
  <path d="M29.5 36H35.5" stroke="#7C3AED" stroke-width="2.4" stroke-linecap="round"/>
  <path d="M18.5 39.5C16.0147 37.0147 16.0147 32.9853 18.5 30.5C20.9853 28.0147 25.0147 28.0147 27.5 30.5L29 32L30.5 30.5C32.9853 28.0147 37.0147 28.0147 39.5 30.5C41.9853 32.9853 41.9853 37.0147 39.5 39.5L29 50L18.5 39.5Z" fill="#F472B6" fill-opacity="0.75"/>
  <defs>
    <linearGradient id="g" x1="10" y1="10" x2="54" y2="54" gradientUnits="userSpaceOnUse">
      <stop stop-color="#7C3AED"/>
      <stop offset="1" stop-color="#2563EB"/>
    </linearGradient>
  </defs>
</svg>
